<svg width="54" height="50" viewBox="0 0 54 50" fill="none" xmlns="http://www.w3.org/2000/svg">
<g clip-path="url(#clip0_3_56)">
<path d="M36.5 13.5H33.3333C33.3333 10.0008 30.4991 7.16663 27 7.16663C23.5008 7.16663 20.6666 10.0008 20.6666 13.5H17.5C15.7583 13.5 14.3333 14.925 14.3333 16.6666V35.6666C14.3333 37.4083 15.7583 38.8333 17.5 38.8333H36.5C38.2416 38.8333 39.6666 37.4083 39.6666 35.6666V16.6666C39.6666 14.925 38.2416 13.5 36.5 13.5ZM27 10.3333C28.7416 10.3333 30.1666 11.7583 30.1666 13.5H23.8333C23.8333 11.7583 25.2583 10.3333 27 10.3333ZM36.5 35.6666H17.5V16.6666H20.6666V19.8333C20.6666 20.7041 21.3791 21.4166 22.25 21.4166C23.1208 21.4166 23.8333 20.7041 23.8333 19.8333V16.6666H30.1666V19.8333C30.1666 20.7041 30.8791 21.4166 31.75 21.4166C32.6208 21.4166 33.3333 20.7041 33.3333 19.8333V16.6666H36.5V35.6666Z" fill="#002F52"/>
</g>
<defs>
<clipPath id="clip0_3_56">
<rect width="38" height="38" fill="white" transform="translate(8 4)"/>
</clipPath>
</defs>
</svg>
